<svg width="60.000000" height="60.000000" viewBox="0 0 60 60" fill="none" xmlns="http://www.w3.org/2000/svg" xmlns:xlink="http://www.w3.org/1999/xlink">
	<desc>
			Created with Pixso.
	</desc>
	<defs>
		<clipPath id="clip335_18">
			<rect id="Icon" width="60.000000" height="60.000000" fill="white" fill-opacity="0"/>
		</clipPath>
	</defs>
	<rect id="Icon" width="60.000000" height="60.000000" fill="#FFFFFF" fill-opacity="0"/>
	<g clip-path="url(#clip335_18)">
		<path id="Vector" d="M47.2478 6.71075C42.2336 2.99683 36.2833 1.03455 30.0402 1.03455C24.3475 1.03455 18.6919 2.67316 14.4827 5.48483L14.4827 1.03455C14.4827 0.46347 14.0192 0 13.4481 0C12.8771 0 12.4136 0.46347 12.4136 1.03455L12.4136 7.54242C12.4136 7.94379 12.6453 8.30896 13.0084 8.47864C13.3715 8.64938 13.8008 8.59454 14.1091 8.33789C18.0547 5.06064 24.0103 3.10336 30.0402 3.10336C35.8364 3.10336 41.3605 4.92609 46.0167 8.37411C46.2019 8.51062 46.417 8.57684 46.6312 8.57684C46.9478 8.57684 47.2603 8.43201 47.4629 8.1579C47.8033 7.69864 47.7072 7.05106 47.2478 6.71075Z" fill="#EF2A82" fill-opacity="1.000000" fill-rule="nonzero"/>
		<path id="Vector" d="M58.9655 12.4138L52.4575 12.4138C52.0562 12.4138 51.693 12.6465 51.5223 13.0097C51.3517 13.3728 51.4065 13.8021 51.6631 14.1105C54.9404 18.055 56.8976 24.0105 56.8976 30.0415C56.8976 35.8377 55.075 41.3618 51.627 46.017C51.2866 46.4763 51.3828 47.1238 51.842 47.4643C52.0272 47.6008 52.2424 47.667 52.4565 47.667C52.7731 47.667 53.0856 47.5222 53.2893 47.248C57.0031 42.2339 58.9656 36.2835 58.9656 30.0405C58.9656 24.3477 57.3269 18.6912 54.5153 14.4829L58.9656 14.4829C59.5366 14.4829 60 14.0194 60 13.4484C60 12.8773 59.5365 12.4138 58.9655 12.4138Z" fill="#EF2A82" fill-opacity="1.000000" fill-rule="nonzero"/>
		<path id="Vector" d="M46.9924 51.5224C46.6294 51.3527 46.201 51.4054 45.8916 51.6631C41.9462 54.9404 35.9906 56.8976 29.9606 56.8976C24.1633 56.8976 18.6393 55.0749 13.9841 51.6269C13.5248 51.2866 12.8772 51.3828 12.5369 51.8421C12.1965 52.3013 12.2927 52.9489 12.752 53.2893C17.7661 57.0031 23.7166 58.9655 29.9596 58.9655C35.6523 58.9655 41.3079 57.3269 45.5171 54.5152L45.5171 58.9655C45.5171 59.5366 45.9806 60.0001 46.5516 60.0001C47.1227 60.0001 47.5862 59.5366 47.5862 58.9655L47.5862 52.4576C47.5862 52.0562 47.3545 51.691 46.9924 51.5224Z" fill="#EF2A82" fill-opacity="1.000000" fill-rule="nonzero"/>
		<path id="Vector" d="M8.33789 45.8907C5.06067 41.9452 3.10339 35.9907 3.10339 29.9596C3.10339 24.1634 4.92615 18.6393 8.37305 13.9842C8.71338 13.5249 8.61719 12.8773 8.15784 12.5369C7.69861 12.1955 7.05103 12.2928 6.71057 12.752C2.99683 17.7662 1.03455 23.7165 1.03455 29.9596C1.03455 35.6524 2.67322 41.308 5.48486 45.5172L1.03455 45.5172C0.463501 45.5172 0 45.9807 0 46.5518C0 47.1228 0.463501 47.5863 1.03455 47.5863L7.54248 47.5863C7.94385 47.5863 8.30786 47.3546 8.47864 46.9914C8.64941 46.6283 8.59448 46.1989 8.33789 45.8907Z" fill="#EF2A82" fill-opacity="1.000000" fill-rule="nonzero"/>
		<path id="Vector" d="M31.0345 19.653C31.0334 19.082 30.5699 18.6206 30 18.6206C30 18.6206 29.9989 18.6206 29.9979 18.6206C29.4258 18.6217 28.9644 19.0861 28.9655 19.6571L28.9904 30.002C28.9913 30.573 29.4548 31.0344 30.0248 31.0344C30.0259 31.0344 30.027 31.0344 30.027 31.0344C30.599 31.0333 31.0604 30.5689 31.0593 29.9979L31.0345 19.653Z" fill="#EF2A82" fill-opacity="1.000000" fill-rule="nonzero"/>
		<path id="Vector" d="M30.0248 28.9655L23.7931 28.9655C23.222 28.9655 22.7585 29.4289 22.7585 30C22.7585 30.571 23.222 31.0345 23.7931 31.0345L30.0248 31.0345C30.5958 31.0345 31.0593 30.571 31.0593 30C31.0593 29.4289 30.5958 28.9655 30.0248 28.9655Z" fill="#EF2A82" fill-opacity="1.000000" fill-rule="nonzero"/>
		<path id="Vector" d="M30 8.27588C18.0216 8.27588 8.27588 18.0207 8.27588 30C8.27588 41.9792 18.0216 51.7241 30 51.7241C41.9792 51.7241 51.7241 41.9792 51.7241 30C51.7241 18.0207 41.9792 8.27588 30 8.27588ZM30 49.6552C19.1616 49.6552 10.3448 40.8383 10.3448 30C10.3448 19.1617 19.1616 10.3448 30 10.3448C40.8383 10.3448 49.6552 19.1617 49.6552 30C49.6552 40.8383 40.8383 49.6552 30 49.6552Z" fill="#EF2A82" fill-opacity="1.000000" fill-rule="nonzero"/>
		<path id="Vector" d="M15.5173 28.9655L13.4484 28.9655C12.8773 28.9655 12.4138 29.4289 12.4138 30C12.4138 30.571 12.8773 31.0345 13.4484 31.0345L15.5173 31.0345C16.0884 31.0345 16.5519 30.571 16.5519 30C16.5519 29.4289 16.0884 28.9655 15.5173 28.9655Z" fill="#EF2A82" fill-opacity="1.000000" fill-rule="nonzero"/>
		<path id="Vector" d="M46.5516 28.9655L44.4827 28.9655C43.9116 28.9655 43.4481 29.4289 43.4481 30C43.4481 30.571 43.9116 31.0345 44.4827 31.0345L46.5516 31.0345C47.1227 31.0345 47.5862 30.571 47.5862 30C47.5862 29.4289 47.1227 28.9655 46.5516 28.9655Z" fill="#EF2A82" fill-opacity="1.000000" fill-rule="nonzero"/>
		<path id="Vector" d="M30 43.4482C29.429 43.4482 28.9655 43.9117 28.9655 44.4828L28.9655 46.5517C28.9655 47.1228 29.429 47.5862 30 47.5862C30.571 47.5862 31.0345 47.1228 31.0345 46.5517L31.0345 44.4828C31.0345 43.9116 30.571 43.4482 30 43.4482Z" fill="#EF2A82" fill-opacity="1.000000" fill-rule="nonzero"/>
		<path id="Vector" d="M30 12.4138C29.429 12.4138 28.9655 12.8773 28.9655 13.4484L28.9655 15.5173C28.9655 16.0883 29.429 16.5518 30 16.5518C30.571 16.5518 31.0345 16.0883 31.0345 15.5173L31.0345 13.4484C31.0345 12.8773 30.571 12.4138 30 12.4138Z" fill="#EF2A82" fill-opacity="1.000000" fill-rule="nonzero"/>
		<path id="Vector" d="M20.3866 39.6135C19.983 39.2089 19.3282 39.2089 18.9238 39.6135L17.5646 40.9718C17.1611 41.3753 17.1611 42.0301 17.5646 42.4345C17.7662 42.6362 18.0311 42.7376 18.2959 42.7376C18.5608 42.7376 18.8256 42.6373 19.0273 42.4345L20.3866 41.0762C20.79 40.6727 20.79 40.0179 20.3866 39.6135Z" fill="#EF2A82" fill-opacity="1.000000" fill-rule="nonzero"/>
		<path id="Vector" d="M42.4346 17.5655C42.03 17.1609 41.3762 17.1609 40.9718 17.5655L39.6134 18.9238C39.209 19.3283 39.209 19.9821 39.6134 20.3865C39.8152 20.5882 40.08 20.6896 40.3448 20.6896C40.6096 20.6896 40.8745 20.5882 41.0762 20.3865L42.4346 19.0282C42.839 18.6238 42.839 17.97 42.4346 17.5655Z" fill="#EF2A82" fill-opacity="1.000000" fill-rule="nonzero"/>
		<path id="Vector" d="M42.4346 40.9716L41.0762 39.6133C40.6716 39.2088 40.0178 39.2088 39.6134 39.6133C39.209 40.0179 39.209 40.6717 39.6134 41.0761L40.9718 42.4344C41.1735 42.6361 41.4384 42.7375 41.7031 42.7375C41.968 42.7375 42.2328 42.6371 42.4346 42.4344C42.839 42.03 42.839 41.3762 42.4346 40.9716Z" fill="#EF2A82" fill-opacity="1.000000" fill-rule="nonzero"/>
		<path id="Vector" d="M20.3865 18.9238L19.0272 17.5655C18.6238 17.1609 17.9689 17.1609 17.5645 17.5655C17.16 17.97 17.16 18.6247 17.5645 19.0282L18.9237 20.3865C19.1255 20.5882 19.3903 20.6896 19.6552 20.6896C19.9199 20.6896 20.1848 20.5882 20.3865 20.3865C20.791 19.9821 20.791 19.3273 20.3865 18.9238Z" fill="#EF2A82" fill-opacity="1.000000" fill-rule="nonzero"/>
	</g>
</svg>
