<svg width="60.000000" height="60.000000" viewBox="0 0 60 60" fill="none" xmlns="http://www.w3.org/2000/svg" xmlns:xlink="http://www.w3.org/1999/xlink">
	<desc>
			Created with Pixso.
	</desc>
	<defs>
		<clipPath id="clip335_64">
			<rect id="Icon" width="60.000000" height="60.000000" fill="white" fill-opacity="0"/>
		</clipPath>
	</defs>
	<rect id="Icon" width="60.000000" height="60.000000" fill="#FFFFFF" fill-opacity="0"/>
	<g clip-path="url(#clip335_64)">
		<path id="Vector" d="M19.0635 23.3911C18.9036 23.0771 18.5906 22.8712 18.2395 22.8482L9.82715 22.2872C9.39136 22.2442 8.98828 22.5142 8.82935 22.9201L2.76465 38.419C2.60181 38.835 2.73462 39.308 3.09082 39.5789C3.2688 39.7148 3.48267 39.7829 3.69556 39.7829C3.90649 39.7829 4.11768 39.7169 4.29565 39.583L9.32935 35.8083L12.26 36.3942C12.738 36.4893 13.2161 36.2272 13.3901 35.7703C14.9639 31.6476 16.8586 27.8139 19.0195 24.3772C19.2065 24.079 19.2236 23.704 19.0635 23.3911ZM11.8281 34.2682L9.28223 33.7593C9.00439 33.7043 8.71436 33.7703 8.48633 33.9402L5.90747 35.874L10.4241 24.3309L16.4617 24.7329C14.7219 27.6778 13.168 30.8754 11.8281 34.2682Z" fill="#EF2A82" fill-opacity="1.000000" fill-rule="nonzero"/>
		<path id="Vector" d="M37.7129 50.174L37.1521 41.7606C37.1279 41.4086 36.9221 41.0957 36.6082 40.9356C36.2952 40.7757 35.9202 40.7916 35.6221 40.9796C32.1843 43.1404 28.3518 45.0353 24.229 46.6091C23.7732 46.7821 23.509 47.2601 23.6052 47.739L24.1912 50.6698L20.4165 55.7024C20.1484 56.0604 20.1494 56.5524 20.4204 56.9084C20.6135 57.1623 20.9104 57.3033 21.2163 57.3033C21.3384 57.3033 21.4614 57.2803 21.5813 57.2363L37.0801 51.1718C37.4861 51.013 37.7419 50.6089 37.7129 50.174ZM24.125 54.0907L26.0588 51.5119C26.2288 51.2849 26.2949 50.995 26.2388 50.716L25.73 48.1712C29.1235 46.8313 32.3203 45.2774 35.2651 43.5375L35.6682 49.574L24.125 54.0907Z" fill="#EF2A82" fill-opacity="1.000000" fill-rule="nonzero"/>
		<path id="Vector" d="M28.9978 30.0005L22.2603 30.0005C21.8975 30.0005 21.5635 30.1975 21.3862 30.5145L12.9299 45.7093C12.71 46.1053 12.7839 46.6012 13.1099 46.9153C13.301 47.0993 13.5518 47.1953 13.804 47.1953C13.9819 47.1953 14.1609 47.1483 14.3208 47.0503L29.5156 37.855C29.8147 37.6741 29.9976 37.3501 29.9976 37.0002L29.9976 31.0004C29.9978 30.4485 29.5498 30.0005 28.9978 30.0005ZM27.998 36.4371L16.5098 43.3895L22.8474 32.0013L22.8474 32.0003L27.998 32.0003L27.998 36.4371Z" fill="#EF2A82" fill-opacity="1.000000" fill-rule="nonzero"/>
		<path id="Vector" d="M59.9497 0.963776C59.9087 0.476868 59.5227 0.0908508 59.0356 0.0498352C58.7036 0.0238037 25.7751 -2.27502 11.5222 35.0562C11.3813 35.4252 11.4702 35.8411 11.7493 36.1201L16.5039 40.8748C16.7268 41.0977 17.0388 41.1997 17.3518 41.1577C17.6628 41.1128 17.9348 40.9248 18.0869 40.6497L22.8506 32.0005L27.998 32.0005L27.998 36.4491L19.2969 41.9427C19.0398 42.1057 18.8708 42.3757 18.8369 42.6777C18.803 42.9796 18.9089 43.2806 19.1238 43.4956L23.8784 48.2502C24.0696 48.4412 24.3245 48.5432 24.5854 48.5432C24.7053 48.5432 24.8264 48.5222 24.9424 48.4772C62.2754 34.2232 59.9775 1.29483 59.9497 0.963776ZM54.7039 18.7045C51.1951 27.3858 43.1658 39.188 24.8323 46.3764L21.4224 42.9666L29.532 37.847C29.8218 37.663 29.9978 37.344 29.9978 37.001L29.9978 31.0014C29.9978 30.4495 29.5498 30.0015 28.9978 30.0015L22.2583 30.0015C21.8936 30.0015 21.5583 30.2005 21.3823 30.5195L16.9758 38.5208L13.623 35.1671C26.135 3.24762 52.8052 1.94168 57.9897 2.01471C58.0266 4.34659 57.8127 11.012 54.7039 18.7045Z" fill="#EF2A82" fill-opacity="1.000000" fill-rule="nonzero"/>
		<path id="Vector" d="M17.1287 44.1645C16.9116 43.8766 16.5657 43.7366 16.2266 43.7725C16.2617 43.4326 16.1216 43.0876 15.8347 42.8705C14.3269 41.7307 12.3809 41.3517 10.4941 41.8296C8.49121 42.3385 6.85352 43.7044 6.00146 45.5793L0.0900879 58.5854C-0.0830078 58.9653 -0.00195312 59.4123 0.292969 59.7062C0.483887 59.8982 0.73999 59.9992 1 59.9992C1.13989 59.9992 1.28101 59.9692 1.41406 59.9092L14.4199 53.9967C16.2939 53.1458 17.6597 51.5079 18.1687 49.5051C18.6477 47.6202 18.2686 45.6734 17.1287 44.1645ZM16.2307 49.0131C15.8728 50.424 14.9109 51.5769 13.593 52.1769L3.01392 56.9855L7.82251 46.4054C8.42139 45.0875 9.5752 44.1255 10.9863 43.7676C11.3572 43.6736 11.7302 43.6276 12.0981 43.6276C12.7209 43.6276 13.3298 43.7606 13.885 44.0196L12.9331 45.7045C12.7119 46.0954 12.7791 46.5864 13.0969 46.9034C13.4148 47.2224 13.906 47.2884 14.2959 47.0674L15.9807 46.1144C16.3906 46.9963 16.4839 48.0151 16.2307 49.0131Z" fill="#EF2A82" fill-opacity="1.000000" fill-rule="nonzero"/>
		<path id="Vector" d="M59.9495 0.964752C59.9084 0.477844 59.5225 0.0918579 59.0356 0.0508423C58.6455 0.0197754 49.3762 -0.682159 38.4751 4.33951C38.1782 4.47543 37.967 4.74942 37.9092 5.07144C37.8511 5.39346 37.9551 5.72336 38.186 5.95432L54.0449 21.8131C54.2339 22.0022 54.489 22.1061 54.752 22.1061C54.8108 22.1061 54.8699 22.1011 54.929 22.0911C55.251 22.0331 55.5239 21.8222 55.6609 21.5251C60.6833 10.624 59.9814 1.3537 59.9495 0.964752ZM54.428 19.3663L40.6331 5.57135C48.6133 2.20261 55.6018 1.97058 57.9907 2.01065C58.0305 4.40149 57.8057 11.368 54.428 19.3663Z" fill="#EF2A82" fill-opacity="1.000000" fill-rule="nonzero"/>
		<path id="Vector" d="M44.1604 15.8387C40.7979 12.476 35.3271 12.476 31.9644 15.8387C28.6018 19.2015 28.6018 24.672 31.9644 28.0348C33.6455 29.7166 35.8542 30.5566 38.062 30.5566C40.2708 30.5566 42.4788 29.7157 44.1604 28.0348C47.5232 24.672 47.5232 19.2014 44.1604 15.8387ZM42.7466 26.6208C40.1638 29.2036 35.9612 29.2036 33.3784 26.6208C30.7957 24.038 30.7957 19.8354 33.3784 17.2526C34.6694 15.9617 36.3662 15.3157 38.0623 15.3157C39.7581 15.3157 41.4548 15.9617 42.7468 17.2526C45.3293 19.8354 45.3293 24.038 42.7466 26.6208Z" fill="#EF2A82" fill-opacity="1.000000" fill-rule="nonzero"/>
		<path id="Vector" d="M40.05 23.925C38.9541 25.0229 37.1702 25.0219 36.0732 23.925C34.9773 22.8281 34.9773 21.0453 36.0732 19.9483C37.1692 18.8524 38.9529 18.8514 40.05 19.9483C40.4399 20.3392 41.074 20.3392 41.4639 19.9483C41.8547 19.5573 41.8547 18.9254 41.4639 18.5344C39.5889 16.6586 36.5352 16.6586 34.6594 18.5344C32.7834 20.4102 32.7834 23.463 34.6594 25.3388C35.5974 26.2768 36.8303 26.7458 38.062 26.7458C39.2949 26.7458 40.5269 26.2768 41.4639 25.3388C41.8547 24.9479 41.8547 24.3159 41.4639 23.925C41.0737 23.5341 40.4399 23.5341 40.05 23.925Z" fill="#EF2A82" fill-opacity="1.000000" fill-rule="nonzero"/>
	</g>
</svg>
