<svg width="20.000000" height="20.000000" viewBox="0 0 20 20" fill="none" xmlns="http://www.w3.org/2000/svg" xmlns:xlink="http://www.w3.org/1999/xlink">
	<desc>
			Created with Pixso.
	</desc>
	<defs/>
	<path id="Instagram" d="M10 1.83325C12.6667 1.83325 13 1.83325 14.0833 1.91675C16.8333 2 18.0833 3.33325 18.1667 6C18.25 7.08325 18.25 7.33325 18.25 10C18.25 12.6667 18.25 13 18.1667 14C18.0833 16.6667 16.75 18 14.0833 18.0833C13 18.1667 12.75 18.1667 10 18.1667C7.33325 18.1667 7 18.1667 6 18.0833C3.25 18 2 16.6667 1.91675 14C1.83325 12.9167 1.83325 12.6667 1.83325 10C1.83325 7.33325 1.83325 7 1.91675 6C2 3.33325 3.33325 2 6 1.91675C7 1.83325 7.33325 1.83325 10 1.83325ZM10 0C7.25 0 6.91675 0 5.91675 0.083252C2.25 0.25 0.25 2.25 0.083252 5.91675C0 6.91675 0 7.25 0 10C0 12.75 0 13.0833 0.083252 14.0833C0.25 17.75 2.25 19.75 5.91675 19.9167C6.91675 20 7.25 20 10 20C12.75 20 13.0833 20 14.0833 19.9167C17.75 19.75 19.75 17.75 19.9167 14.0833C20 13.0833 20 12.75 20 10C20 7.25 20 6.91675 19.9167 5.91675C19.75 2.25 17.75 0.25 14.0833 0.083252C13.0833 0 12.75 0 10 0ZM10 4.83325C7.16675 4.83325 4.83325 7.16675 4.83325 10C4.83325 12.8333 7.16675 15.1667 10 15.1667C12.8333 15.1667 15.1667 12.8333 15.1667 10C15.1667 7.16675 12.8333 4.83325 10 4.83325ZM10 13.3333C8.16675 13.3333 6.66675 11.8333 6.66675 10C6.66675 8.16675 8.16675 6.66675 10 6.66675C11.8333 6.66675 13.3333 8.16675 13.3333 10C13.3333 11.8333 11.8333 13.3333 10 13.3333ZM15.3333 3.5C14.6667 3.5 14.1667 4 14.1667 4.66675C14.1667 5.33325 14.6667 5.83325 15.3333 5.83325C16 5.83325 16.5 5.33325 16.5 4.66675C16.5 4 16 3.5 15.3333 3.5Z" fill="#8794BA" fill-opacity="1.000000" fill-rule="nonzero"/>
</svg>
